<mxfile host="app.diagrams.net" modified="2024-06-01T08:13:37.199Z" agent="Mozilla/5.0 (X11; Linux x86_64) AppleWebKit/537.36 (KHTML, like Gecko) Chrome/108.0.0.0 Safari/537.36" version="24.4.13" etag="ZJ3X3VfZG2A44N9JrXm7" type="github">
  <diagram name="Page-1" id="Jynrqa7XLcahzZw6J8cP">
    <mxGraphModel>
      <root>
        <mxCell id="0" />
        <mxCell id="1" parent="0" />
      </root>
    </mxGraphModel>
  </diagram>
</mxfile>
